<svg width="299.99" height="299.99" xmlns="http://www.w3.org/2000/svg">

 <g>
  <title>background</title>
  <rect fill="none" id="canvas_background" height="402" width="582" y="-1" x="-1"/>
 </g>
 <g>
  <title>Layer 1</title>
  <g id="svg_1">
   <g id="svg_2">
    <path stroke-width="0" fill="#ce0000" stroke="#ffffff" id="svg_3" d="m149.995,0c-82.837,0 -149.995,67.156 -149.995,149.995s67.158,149.995 149.995,149.995c82.839,0 149.995,-67.156 149.995,-149.995s-67.156,-149.995 -149.995,-149.995zm-60.514,211.219l-37.176,9.959l10.177,-37.973c-7.01,-12.05 -11.051,-26.05 -11.051,-40.997c0,-45.074 36.541,-81.618 81.62,-81.618c45.071,0 81.615,36.544 81.615,81.618c0,45.074 -36.544,81.62 -81.615,81.62c-16.028,0.004 -30.96,-4.629 -43.57,-12.609zm158.279,25.757l-33.818,-9.059c-11.477,7.257 -25.057,11.474 -39.63,11.474c-10.39,0 -20.271,-2.142 -29.248,-5.999c45.064,-5.9 79.981,-44.527 79.981,-91.177c0,-13.518 -2.959,-26.351 -8.216,-37.926c19.182,13.427 31.73,35.67 31.73,60.853c0,13.596 -3.673,26.33 -10.05,37.293l9.251,34.541z"/>
   </g>
  </g>
  <g id="svg_4"/>
  <g id="svg_5"/>
  <g id="svg_6"/>
  <g id="svg_7"/>
  <g id="svg_8"/>
  <g id="svg_9"/>
  <g id="svg_10"/>
  <g id="svg_11"/>
  <g id="svg_12"/>
  <g id="svg_13"/>
  <g id="svg_14"/>
  <g id="svg_15"/>
  <g id="svg_16"/>
  <g id="svg_17"/>
  <g id="svg_18"/>
 </g>
</svg>